<svg width="124" height="27" viewBox="0 0 124 27" fill="none" xmlns="http://www.w3.org/2000/svg">
<path d="M8.76 20.904C8.76 24.04 9.88 25.608 15.832 25.608C19.832 25.608 23.032 25.352 25.88 24.936L25.976 22.184C22.808 22.824 19.704 23.144 15.992 23.144C12.184 23.144 11.352 22.44 11.352 20.232C11.352 17.064 11.352 6.6 11.352 3.24C11.352 2.312 11.448 1.224 11.576 0.296H8.568C8.728 1.224 8.76 2.28 8.76 3.24C8.76 6.632 8.76 17.96 8.76 20.904ZM27.352 6.6L25.464 5.128C25.08 5.352 24.44 5.544 23.768 5.704C21.336 6.28 4.984 9.576 0.888 10.056L1.4 12.744C5.24 11.912 22.488 8.456 23.48 8.264C22.52 10.152 20.184 13.672 17.784 15.88L19.992 17.192C22.584 14.568 25.08 10.536 26.552 7.88C26.776 7.496 27.096 6.952 27.352 6.6ZM40.184 0.775999L39.256 3.144C43.672 3.72 52.056 5.544 55.928 6.984L56.952 4.52C52.92 3.112 44.344 1.32 40.184 0.775999ZM38.712 9.224L37.752 11.624C42.296 12.328 50.136 14.088 53.848 15.528L54.84 13.064C50.872 11.624 43.096 9.992 38.712 9.224ZM36.984 18.536L35.992 21C41.144 21.8 50.68 23.944 54.904 25.8L56.024 23.336C51.64 21.576 42.328 19.4 36.984 18.536ZM78.52 3.432C78.52 5.256 78.52 8.264 78.52 10.184C78.52 16.776 75.896 21.512 69.816 24.392L72.312 26.216C78.84 22.472 81.176 17.256 81.176 10.184C81.176 8.232 81.176 5.256 81.176 3.432C81.176 2.504 81.304 0.903999 81.4 0.231998H78.2C78.392 0.903999 78.52 2.44 78.52 3.432ZM66.104 7.56V10.344C66.776 10.28 67.928 10.248 69.144 10.248C70.648 10.248 88.152 10.248 89.656 10.248C90.648 10.248 91.992 10.28 92.472 10.312V7.592C91.992 7.656 90.776 7.72 89.688 7.72C88.152 7.72 70.648 7.72 69.08 7.72C67.928 7.72 66.744 7.656 66.104 7.56ZM98.232 11.144V14.28C99.256 14.216 100.952 14.152 102.712 14.152C105.08 14.152 117.848 14.152 120.28 14.152C121.688 14.152 123.032 14.248 123.704 14.28V11.144C122.968 11.208 121.848 11.336 120.248 11.336C117.88 11.336 105.048 11.336 102.712 11.336C100.888 11.336 99.224 11.24 98.232 11.144Z" fill="white"/>
</svg>
