<svg width="101" height="30" viewBox="0 0 101 30" fill="none" xmlns="http://www.w3.org/2000/svg">
<g clip-path="url(#clip0_16_166)">
<path d="M15.7968 0C7.51274 0 0.796875 6.71568 0.796875 14.9997C0.796875 23.2847 7.51274 30 15.7968 30C24.0812 30 30.7967 23.2847 30.7967 14.9997C30.7967 6.71621 24.0815 0.000715925 15.7966 0.000715925L15.7968 0ZM22.6756 21.6339C22.4063 22.0758 21.8306 22.2143 21.3901 21.945C17.8677 19.7922 13.4342 19.3059 8.2129 20.4987C7.70976 20.614 7.20823 20.2986 7.0936 19.7956C6.97842 19.2925 7.29241 18.7909 7.79681 18.6763C13.5107 17.37 18.4119 17.9323 22.3656 20.3482C22.8062 20.6187 22.9459 21.1936 22.6755 21.6343L22.6756 21.6339ZM24.5116 17.5502C24.1724 18.1006 23.4527 18.2733 22.9029 17.9353C18.8719 15.4574 12.7251 14.7396 7.95605 16.1873C7.33755 16.3741 6.68431 16.0255 6.49659 15.4081C6.31031 14.7896 6.65906 14.1376 7.27648 13.9496C12.724 12.2967 19.4961 13.0973 24.1263 15.9426C24.6762 16.2811 24.85 17.0012 24.5114 17.5504L24.5116 17.5502ZM24.6692 13.2972C19.8341 10.4258 11.8587 10.1617 7.24297 11.5626C6.50178 11.7874 5.71796 11.369 5.49335 10.6278C5.26873 9.88625 5.68679 9.10296 6.42852 8.87763C11.727 7.26916 20.5352 7.57992 26.1011 10.8841C26.7678 11.2798 26.9865 12.1408 26.5913 12.8066C26.1973 13.4733 25.3339 13.693 24.6694 13.2972H24.6692ZM41.6067 13.8475C39.0168 13.2299 38.5557 12.7964 38.5557 11.8856C38.5557 11.0251 39.3659 10.446 40.5706 10.446C41.7385 10.446 42.8965 10.8857 44.1105 11.791C44.1473 11.8184 44.1933 11.8293 44.2386 11.8222C44.2839 11.8154 44.3241 11.7905 44.3506 11.753L45.6152 9.97044C45.6671 9.897 45.6529 9.7958 45.5829 9.73973C44.138 8.5803 42.5109 8.01661 40.609 8.01661C37.8126 8.01661 35.8593 9.69477 35.8593 12.0959C35.8593 14.6707 37.5443 15.5824 40.456 16.2862C42.9343 16.857 43.3525 17.3353 43.3525 18.1902C43.3525 19.1375 42.5067 19.7265 41.1456 19.7265C39.6339 19.7265 38.4008 19.2173 37.0214 18.0227C36.9872 17.9931 36.9403 17.9797 36.8969 17.9822C36.8513 17.986 36.8095 18.0071 36.7805 18.0421L35.3626 19.7295C35.3031 19.7996 35.3107 19.9042 35.3795 19.9647C36.9843 21.3975 38.9582 22.1543 41.0883 22.1543C44.1016 22.1543 46.0488 20.5078 46.0488 17.9595C46.0542 15.8083 44.7663 14.6171 41.6121 13.8498L41.6067 13.8475ZM52.866 11.2932C51.5599 11.2932 50.4886 11.8077 49.6052 12.8618V11.6753C49.6052 11.5816 49.5292 11.5053 49.4357 11.5053H47.1167C47.023 11.5053 46.9473 11.5816 46.9473 11.6753V24.8588C46.9473 24.9524 47.023 25.0287 47.1167 25.0287H49.4357C49.5292 25.0287 49.6052 24.9524 49.6052 24.8588V20.6973C50.4888 21.6889 51.5603 22.1734 52.866 22.1734C55.2929 22.1734 57.7497 20.3052 57.7497 16.7339C57.7533 13.1618 55.2958 11.293 52.8687 11.293L52.866 11.2932ZM55.0531 16.7339C55.0531 18.5525 53.9329 19.8216 52.3289 19.8216C50.7431 19.8216 49.547 18.4949 49.547 16.7339C49.547 14.9732 50.7431 13.6463 52.3289 13.6463C53.9069 13.6461 55.0533 14.9444 55.0533 16.7338L55.0531 16.7339ZM64.0466 11.2932C60.9212 11.2932 58.4726 13.6999 58.4726 16.7728C58.4726 19.8123 60.9043 22.1936 64.0083 22.1936C67.1448 22.1936 69.6009 19.7951 69.6009 16.7339C69.6009 13.6834 67.1613 11.2936 64.0464 11.2936L64.0466 11.2932ZM64.0466 19.8397C62.3842 19.8397 61.1309 18.504 61.1309 16.733C61.1309 14.9546 62.3409 13.664 64.0083 13.664C65.6814 13.664 66.9431 14.9997 66.9431 16.7719C66.9431 18.55 65.7251 19.8397 64.0468 19.8397H64.0466ZM76.275 11.5053H73.7231V8.89627C73.7231 8.80277 73.6475 8.72647 73.5539 8.72647H71.2352C71.1413 8.72647 71.0652 8.80277 71.0652 8.89627V11.5053H69.9502C69.8569 11.5053 69.7813 11.5816 69.7813 11.6753V13.6683C69.7813 13.7618 69.8569 13.8383 69.9502 13.8383H71.0652V18.9953C71.0652 21.0794 72.1025 22.136 74.1482 22.136C74.98 22.136 75.6701 21.9642 76.3205 21.5954C76.3734 21.5658 76.4061 21.5089 76.4061 21.4484V19.5504C76.4061 19.4918 76.3757 19.4365 76.3255 19.4059C76.275 19.3742 76.2122 19.3725 76.1604 19.3982C75.7136 19.623 75.2818 19.7267 74.7991 19.7267C74.055 19.7267 73.7231 19.3888 73.7231 18.6317V13.8392H76.275C76.3687 13.8392 76.4441 13.7629 76.4441 13.6692V11.6764C76.4477 11.5827 76.3725 11.5064 76.2775 11.5064L76.275 11.5053ZM85.1665 11.5155V11.1951C85.1665 10.2524 85.5279 9.83198 86.3386 9.83198C86.8221 9.83198 87.2104 9.92798 87.6453 10.0731C87.6989 10.0899 87.7547 10.0815 87.7983 10.0494C87.843 10.0174 87.8683 9.96595 87.8683 9.9115V7.95732C87.8683 7.88262 87.8203 7.81653 87.7483 7.7945C87.2888 7.65782 86.701 7.51758 85.8208 7.51758C83.6789 7.51758 82.5467 8.72376 82.5467 11.0045V11.4953H81.4326C81.3391 11.4953 81.2624 11.5716 81.2624 11.6651V13.6683C81.2624 13.7618 81.3391 13.8383 81.4326 13.8383H82.5467V21.7928C82.5467 21.8864 82.6223 21.9627 82.7158 21.9627H85.0348C85.1285 21.9627 85.2048 21.8864 85.2048 21.7928V13.8389H87.37L90.6867 21.7914C90.3102 22.6269 89.94 22.7932 89.4345 22.7932C89.0259 22.7932 88.5957 22.6712 88.1558 22.4304C88.1144 22.4077 88.0653 22.4039 88.0207 22.4177C87.9765 22.4333 87.9392 22.4663 87.9204 22.5093L87.1344 24.2336C87.097 24.3151 87.1291 24.4108 87.2075 24.4531C88.0281 24.8974 88.7687 25.0871 89.6842 25.0871C91.3966 25.0871 92.343 24.2895 93.1774 22.1437L97.2005 11.7476C97.2208 11.6953 97.2147 11.6362 97.1826 11.5898C97.1508 11.5438 97.0993 11.516 97.0431 11.516H94.6289C94.5566 11.516 94.4919 11.5621 94.4683 11.63L91.9952 18.694L89.2864 11.6253C89.2617 11.5596 89.1983 11.516 89.1281 11.516H85.1659L85.1665 11.5155ZM80.0114 11.5053H77.6924C77.5987 11.5053 77.5224 11.5816 77.5224 11.6753V21.7928C77.5224 21.8865 77.5987 21.9628 77.6924 21.9628H80.0114C80.1049 21.9628 80.1814 21.8865 80.1814 21.7928V11.676C80.1815 11.6536 80.1771 11.6315 80.1686 11.6108C80.16 11.5902 80.1475 11.5714 80.1317 11.5556C80.1159 11.5398 80.0971 11.5273 80.0764 11.5188C80.0557 11.5103 80.0336 11.5059 80.0112 11.506L80.0114 11.5053ZM78.8651 6.89857C77.9464 6.89857 77.2009 7.64225 77.2009 8.56096C77.2009 9.4802 77.9466 10.2248 78.8651 10.2248C79.7834 10.2248 80.5282 9.4802 80.5282 8.56096C80.5282 7.64244 79.7831 6.89857 78.866 6.89857H78.8651ZM99.1807 14.7583C98.2629 14.7583 97.5487 14.0212 97.5487 13.1261C97.5487 12.2311 98.2722 11.4856 99.1893 11.4856C100.107 11.4856 100.821 12.2225 100.821 13.1168C100.821 14.0119 100.098 14.7583 99.1805 14.7583H99.1807ZM99.1896 11.6479C98.3537 11.6479 97.7212 12.3124 97.7212 13.1261C97.7212 13.9395 98.3492 14.5951 99.1812 14.5951C100.017 14.5951 100.65 13.9311 100.65 13.1168C100.65 12.3035 100.021 11.6479 99.1904 11.6479H99.1896ZM99.5515 13.2847L100.013 13.9309H99.6238L99.2083 13.338H98.851V13.9309H98.5252V12.2178H99.2891C99.6871 12.2178 99.9488 12.4215 99.9488 12.7643C99.9506 13.0452 99.7876 13.2168 99.5529 13.2847H99.5515V13.2847ZM99.2756 12.5118H98.8507V13.0536H99.2756C99.4877 13.0536 99.6143 12.9499 99.6143 12.7824C99.6143 12.6062 99.4872 12.5118 99.2758 12.5118H99.2756V12.5118Z" fill="#A3A5AA"/>
</g>
<defs>
<clipPath id="clip0_16_166">
<rect width="100.024" height="30" fill="white" transform="translate(0.796875)"/>
</clipPath>
</defs>
</svg>
