<svg width="20" height="20" viewBox="0 0 20 20" fill="none" xmlns="http://www.w3.org/2000/svg">
<path d="M16.3583 3.0416C16.2615 2.96328 16.1484 2.90766 16.0272 2.87882C15.9061 2.84997 15.78 2.84865 15.6583 2.87493C14.7678 3.06155 13.8486 3.06393 12.9572 2.88192C12.0658 2.69991 11.221 2.33736 10.475 1.8166C10.3355 1.71983 10.1698 1.66797 9.99998 1.66797C9.83021 1.66797 9.66448 1.71983 9.52498 1.8166C8.77895 2.33736 7.93421 2.69991 7.04279 2.88192C6.15137 3.06393 5.23212 3.06155 4.34165 2.87493C4.21993 2.84865 4.09387 2.84997 3.97273 2.87882C3.8516 2.90766 3.73846 2.96328 3.64165 3.0416C3.54497 3.12003 3.46709 3.21913 3.41373 3.33161C3.36037 3.44409 3.33289 3.5671 3.33332 3.6916V9.89993C3.33258 11.0947 3.6173 12.2724 4.16376 13.3349C4.71023 14.3974 5.50263 15.314 6.47498 16.0083L9.51665 18.1749C9.65779 18.2754 9.82673 18.3294 9.99998 18.3294C10.1732 18.3294 10.3422 18.2754 10.4833 18.1749L13.525 16.0083C14.4973 15.314 15.2897 14.3974 15.8362 13.3349C16.3827 12.2724 16.6674 11.0947 16.6666 9.89993V3.6916C16.6671 3.5671 16.6396 3.44409 16.5862 3.33161C16.5329 3.21913 16.455 3.12003 16.3583 3.0416ZM15 9.89993C15.0006 10.8289 14.7794 11.7446 14.3547 12.5708C13.93 13.397 13.3141 14.1098 12.5583 14.6499L9.99998 16.4749L7.44165 14.6499C6.68585 14.1098 6.06997 13.397 5.64528 12.5708C5.22058 11.7446 4.99935 10.8289 4.99998 9.89993V4.64993C6.74701 4.79946 8.49668 4.39412 9.99998 3.4916C11.5033 4.39412 13.253 4.79946 15 4.64993V9.89993ZM11.2833 7.9916L9.04165 10.2416L8.29998 9.4916C8.14306 9.33468 7.93024 9.24652 7.70832 9.24652C7.4864 9.24652 7.27357 9.33468 7.11665 9.4916C6.95973 9.64852 6.87157 9.86135 6.87157 10.0833C6.87157 10.3052 6.95973 10.518 7.11665 10.6749L8.44998 12.0083C8.52745 12.0864 8.61962 12.1484 8.72117 12.1907C8.82272 12.233 8.93164 12.2548 9.04165 12.2548C9.15166 12.2548 9.26058 12.233 9.36213 12.1907C9.46368 12.1484 9.55585 12.0864 9.63332 12.0083L12.5 9.1666C12.6569 9.00968 12.7451 8.79685 12.7451 8.57493C12.7451 8.35301 12.6569 8.14018 12.5 7.98326C12.3431 7.82634 12.1302 7.73819 11.9083 7.73819C11.6864 7.73819 11.4736 7.82634 11.3167 7.98326L11.2833 7.9916Z" fill="white"/>
</svg>
