<svg width="64" height="40" viewBox="0 0 64 40" fill="none" xmlns="http://www.w3.org/2000/svg">
<path d="M59.48 0H4.09436C1.83311 0 0 1.83311 0 4.09437V35.9056C0 38.1669 1.83311 40 4.09436 40H59.48C61.7412 40 63.5743 38.1669 63.5743 35.9056V4.09437C63.5743 1.83311 61.7412 0 59.48 0Z" fill="#0E8EFF"/>
<path d="M59.4974 0H56.2211C57.3023 0 58.3393 0.429518 59.1038 1.19407C59.8684 1.95863 60.2979 2.99559 60.2979 4.07683V35.9202C60.2975 37.0014 59.8679 38.0381 59.1034 38.8026C58.3389 39.567 57.3022 39.9967 56.2211 39.9971H59.4974C60.5784 39.9967 61.615 39.567 62.3792 38.8025C63.1435 38.038 63.5728 37.0012 63.5728 35.9202V4.07683C63.573 3.54152 63.4677 3.01142 63.263 2.5168C63.0583 2.02219 62.7581 1.57275 62.3797 1.19416C62.0012 0.815574 61.5519 0.515254 61.0573 0.310356C60.5628 0.105458 60.0327 -3.43847e-08 59.4974 0Z" fill="#1D80F9"/>
<path d="M2.3562e-06 35.9232V4.07975C-0.000573509 3.5442 0.104414 3.01378 0.308963 2.51883C0.513512 2.02387 0.81361 1.57409 1.1921 1.1952C1.57059 0.816298 2.02005 0.515721 2.51478 0.310641C3.00952 0.10556 3.53982 -3.09604e-07 4.07537 0H54.3412C54.3412 0 3.10839 0.744959 2.3562e-06 35.9232Z" fill="#369FFF"/>
<path d="M18.0733 6.1145H6.38184V13.6576H18.0733V6.1145Z" fill="#E2F1FF"/>
<path d="M18.0733 10.8835H6.38184V13.6574H18.0733V10.8835Z" fill="#BADCFF"/>
<path d="M46.509 11.4329C46.5086 10.5226 46.741 9.62742 47.184 8.8323C47.6271 8.03719 48.2661 7.3686 49.0404 6.89007C48.2313 6.38951 47.3031 6.11415 46.3519 6.09245C45.4007 6.07076 44.461 6.30351 43.6298 6.76666C42.7987 7.2298 42.1064 7.90652 41.6244 8.72687C41.1424 9.54722 40.8883 10.4814 40.8883 11.4329C40.8883 12.3843 41.1424 13.3185 41.6244 14.1389C42.1064 14.9592 42.7987 15.6359 43.6298 16.0991C44.461 16.5622 45.4007 16.795 46.3519 16.7733C47.3031 16.7516 48.2313 16.4762 49.0404 15.9757C48.2661 15.4971 47.6271 14.8285 47.184 14.0334C46.741 13.2383 46.5086 12.3431 46.509 11.4329Z" fill="#8DC7FF"/>
<path d="M51.8506 6.09107C50.8576 6.09004 49.8842 6.3668 49.0402 6.89007C49.8142 7.3689 50.4531 8.03757 50.8961 8.83261C51.3392 9.62766 51.5717 10.5227 51.5717 11.4329C51.5717 12.343 51.3392 13.2381 50.8961 14.0331C50.4531 14.8282 49.8142 15.4968 49.0402 15.9757C49.7429 16.4103 50.5368 16.6761 51.3595 16.7521C52.1822 16.828 53.0113 16.7121 53.7817 16.4134C54.552 16.1147 55.2426 15.6414 55.799 15.0307C56.3555 14.42 56.7627 13.6885 56.9887 12.8938C57.2147 12.099 57.2532 11.2627 57.1012 10.4506C56.9493 9.63846 56.6111 8.87264 56.1131 8.21334C55.6151 7.55405 54.971 7.01925 54.2314 6.651C53.4918 6.28275 52.6768 6.09108 51.8506 6.09107Z" fill="#E2F1FF"/>
<path d="M49.0404 15.9757C50.4384 15.9757 51.5718 13.9419 51.5718 11.4329C51.5718 8.92402 50.4384 6.89014 49.0404 6.89014C47.6423 6.89014 46.509 8.92402 46.509 11.4329C46.509 13.9419 47.6423 15.9757 49.0404 15.9757Z" fill="#BADCFF"/>
<path d="M38.5904 32.9536H6.38184V34.8613H38.5904V32.9536Z" fill="#8DC7FF"/>
<path d="M16.3716 27.5942H6.38184V29.5019H16.3716V27.5942Z" fill="#E2F1FF"/>
<path d="M29.9781 27.5942H19.9883V29.5019H29.9781V27.5942Z" fill="#E2F1FF"/>
<path d="M43.5845 27.5942H33.5947V29.5019H43.5845V27.5942Z" fill="#E2F1FF"/>
<path d="M57.1925 27.5942H47.2028V29.5019H57.1925V27.5942Z" fill="#E2F1FF"/>
</svg>
